HIERARCHY
ROOT Hips
{
  OFFSET -43.3411 73.6987 0
  CHANNELS 6 Xposition Yposition Zposition Zrotation Xrotation Yrotation
  JOINT Bip01_Pelvis
  {
    OFFSET 0 0 0
    CHANNELS 6 Xposition Yposition Zposition Zrotation Xrotation Yrotation
    JOINT BN_Tail_01
    {
      OFFSET -18.6385 -9.591 -2.032e-005
      CHANNELS 6 Xposition Yposition Zposition Zrotation Xrotation Yrotation
      JOINT BN_Tail_02
      {
        OFFSET 20.9743 0 0
        CHANNELS 6 Xposition Yposition Zposition Zrotation Xrotation Yrotation
        JOINT BN_Tail_03
        {
          OFFSET 20.3015 0 0
          CHANNELS 6 Xposition Yposition Zposition Zrotation Xrotation Yrotation
          JOINT BN_Tail_04
          {
            OFFSET 21.6394 -9.91821e-005 0
            CHANNELS 6 Xposition Yposition Zposition Zrotation Xrotation Yrotation
            End Site
            {
              OFFSET 0 0 0
            }
          }
        }
      }
    }
    JOINT Bip01_Spine
    {
      OFFSET 22.1878 -0.659386 3.048e-005
      CHANNELS 6 Xposition Yposition Zposition Zrotation Xrotation Yrotation
      JOINT Bip01_R_Thigh
      {
        OFFSET -22.1873 0.677109 -17.1024
        CHANNELS 6 Xposition Yposition Zposition Zrotation Xrotation Yrotation
        JOINT Bip01_R_Calf
        {
          OFFSET 34.2647 0 0
          CHANNELS 6 Xposition Yposition Zposition Zrotation Xrotation Yrotation
          JOINT Bip01_R_HorseLink
          {
            OFFSET 20.4429 0 0
            CHANNELS 6 Xposition Yposition Zposition Zrotation Xrotation Yrotation
            JOINT Bip01_R_Foot
            {
              OFFSET 16.5673 0 0
              CHANNELS 6 Xposition Yposition Zposition Zrotation Xrotation Yrotation
              JOINT Bip01_R_Toe0
              {
                OFFSET 9.18784 6.94841 0
                CHANNELS 6 Xposition Yposition Zposition Zrotation Xrotation Yrotation
                JOINT Bip01_R_Toe0Nub
                {
                  OFFSET 1.01907 0 0
                  CHANNELS 6 Xposition Yposition Zposition Zrotation Xrotation Yrotation
                  End Site
                  {
                    OFFSET 0 0 0
                  }
                }
              }
            }
          }
        }
      }
      JOINT Bip01_L_Thigh
      {
        OFFSET -22.1873 0.67701 17.1024
        CHANNELS 6 Xposition Yposition Zposition Zrotation Xrotation Yrotation
        JOINT Bip01_L_Calf
        {
          OFFSET 34.2647 0 0
          CHANNELS 6 Xposition Yposition Zposition Zrotation Xrotation Yrotation
          JOINT Bip01_L_HorseLink
          {
            OFFSET 20.4429 0 0
            CHANNELS 6 Xposition Yposition Zposition Zrotation Xrotation Yrotation
            JOINT Bip01_L_Foot
            {
              OFFSET 16.5673 0 0
              CHANNELS 6 Xposition Yposition Zposition Zrotation Xrotation Yrotation
              JOINT Bip01_L_Toe0
              {
                OFFSET 9.18784 6.9484 1.14441e-005
                CHANNELS 6 Xposition Yposition Zposition Zrotation Xrotation Yrotation
                JOINT Bip01_L_Toe0Nub
                {
                  OFFSET 1.01907 0 0
                  CHANNELS 6 Xposition Yposition Zposition Zrotation Xrotation Yrotation
                  End Site
                  {
                    OFFSET 0 0 0
                  }
                }
              }
            }
          }
        }
      }
      JOINT Bip01_Spine1
      {
        OFFSET 39.3372 -0.0249863 0
        CHANNELS 6 Xposition Yposition Zposition Zrotation Xrotation Yrotation
        JOINT Bip01_Neck
        {
          OFFSET 34.2837 -15.5934 -4.318e-005
          CHANNELS 6 Xposition Yposition Zposition Zrotation Xrotation Yrotation
          JOINT Bip01_R_Clavicle
          {
            OFFSET -17.9452 -11.3131 -6.19287
            CHANNELS 6 Xposition Yposition Zposition Zrotation Xrotation Yrotation
            JOINT Bip01_R_UpperArm
            {
              OFFSET 17.4439 1.52588e-005 -2.28882e-005
              CHANNELS 6 Xposition Yposition Zposition Zrotation Xrotation Yrotation
              JOINT Bip01_R_Forearm
              {
                OFFSET 30.6251 1.14441e-005 0
                CHANNELS 6 Xposition Yposition Zposition Zrotation Xrotation Yrotation
                JOINT Bip01_R_Hand
                {
                  OFFSET 31.2039 0 0
                  CHANNELS 6 Xposition Yposition Zposition Zrotation Xrotation Yrotation
                  JOINT Bip01_R_Finger0
                  {
                    OFFSET 22.1039 0.255862 -0.37902
                    CHANNELS 6 Xposition Yposition Zposition Zrotation Xrotation Yrotation
                    JOINT Bip01_R_Finger0Nub
                    {
                      OFFSET 12.0552 0 0
                      CHANNELS 6 Xposition Yposition Zposition Zrotation Xrotation Yrotation
                      End Site
                      {
                        OFFSET 0 0 0
                      }
                    }
                  }
                }
              }
            }
          }
          JOINT Bip01_L_Clavicle
          {
            OFFSET -17.9452 -11.3132 6.19281
            CHANNELS 6 Xposition Yposition Zposition Zrotation Xrotation Yrotation
            JOINT Bip01_L_UpperArm
            {
              OFFSET 17.444 0 1.14441e-005
              CHANNELS 6 Xposition Yposition Zposition Zrotation Xrotation Yrotation
              JOINT Bip01_L_Forearm
              {
                OFFSET 30.6251 0 0
                CHANNELS 6 Xposition Yposition Zposition Zrotation Xrotation Yrotation
                JOINT Bip01_L_Hand
                {
                  OFFSET 31.204 0 0
                  CHANNELS 6 Xposition Yposition Zposition Zrotation Xrotation Yrotation
                  JOINT Bip01_L_Finger0
                  {
                    OFFSET 22.1039 0.255856 0.379024
                    CHANNELS 6 Xposition Yposition Zposition Zrotation Xrotation Yrotation
                    JOINT Bip01_L_Finger0Nub
                    {
                      OFFSET 12.0552 0 0
                      CHANNELS 6 Xposition Yposition Zposition Zrotation Xrotation Yrotation
                      End Site
                      {
                        OFFSET 0 0 0
                      }
                    }
                  }
                }
              }
            }
          }
          JOINT Bip01_Neck1
          {
            OFFSET 14.9359 -0.0106278 0
            CHANNELS 6 Xposition Yposition Zposition Zrotation Xrotation Yrotation
            JOINT Bip01_Head
            {
              OFFSET 14.3578 0.505501 0
              CHANNELS 6 Xposition Yposition Zposition Zrotation Xrotation Yrotation
              JOINT BN_Ear_L_01
              {
                OFFSET 3.76994 -2.35629 12.3444
                CHANNELS 6 Xposition Yposition Zposition Zrotation Xrotation Yrotation
                End Site
                {
                  OFFSET 0 0 0
                }
              }
              JOINT BN_Ear_R_01
              {
                OFFSET 3.76995 -2.35622 -12.3442
                CHANNELS 6 Xposition Yposition Zposition Zrotation Xrotation Yrotation
                End Site
                {
                  OFFSET 0 0 0
                }
              }
              JOINT BN_Mouth_01
              {
                OFFSET 11.8395 10.8645 1.27e-005
                CHANNELS 6 Xposition Yposition Zposition Zrotation Xrotation Yrotation
                JOINT BN_Tongue_01
                {
                  OFFSET 9.73752 3.21674 1.016e-005
                  CHANNELS 6 Xposition Yposition Zposition Zrotation Xrotation Yrotation
                  JOINT BN_Tongue_02
                  {
                    OFFSET 9.04304 0.053505 0
                    CHANNELS 6 Xposition Yposition Zposition Zrotation Xrotation Yrotation
                    End Site
                    {
                      OFFSET 0 0 0
                    }
                  }
                }
                JOINT BN_Beard_01
                {
                  OFFSET 6.93466 -0.751793 0
                  CHANNELS 6 Xposition Yposition Zposition Zrotation Xrotation Yrotation
                  JOINT BN_Beard_02
                  {
                    OFFSET 13.0965 1.52588e-005 0
                    CHANNELS 6 Xposition Yposition Zposition Zrotation Xrotation Yrotation
                    End Site
                    {
                      OFFSET 0 0 0
                    }
                  }
                }
              }
              JOINT Bip01_HeadNub
              {
                OFFSET 25.6158 0 0
                CHANNELS 6 Xposition Yposition Zposition Zrotation Xrotation Yrotation
                End Site
                {
                  OFFSET 0 0 0
                }
              }
            }
          }
        }
      }
    }
  }
}
MOTION
Frames:	4
Frame Time:	0.0333333
-43.18 73.4314 3.73337 -10.9434 -82.9363 86.1708 0 1.77636e-015 3.8147e-006 -90.3145 11.0581 -96.7873 -18.6385 -9.59102 -3.55271e-015 -49.1342 2.30201 -174.424 20.9743 4.26326e-014 -0.000668526 10.2187 3.72967 -20.2824 20.3015 0 -9.53674e-007 15.2779 -2.31632 -33.1722 21.6394 2.84217e-014 9.53675e-007 7.73148 -12.1135 -40.1802 21.7485 3.61109 -2.59395 12.3514 0.50302 9.2599 -19.3941 0.997569 -17.8719 -106.321 -0.434978 179.133 34.2647 3.8147e-006 1.90735e-006 -57.1152 6.10221e-006 8.38198e-006 20.4429 2.13163e-014 1.90735e-006 41.9452 -2.79452e-006 2.79008e-006 16.5673 -1.90735e-006 -5.72205e-006 15.8292 -5.57475 -6.25619 9.18785 6.94839 1.51363e-008 82.9868 2.23559 -0.254513 1.01907 -1.90735e-006 -1.90735e-006 1.11612e-006 2.44251e-008 8.79781e-008 -24.8986 1.2973 15.8859 -133.812 19.5164 -170.046 34.2647 4.26326e-014 3.55271e-015 -85.5654 -2.22074e-006 -1.71244e-005 20.4429 -2.13163e-014 3.55271e-015 75.9052 2.20388e-006 -9.86411e-006 16.5673 3.8147e-006 1.90735e-006 -54.3257 11.1268 -1.53992 9.18775 6.94854 -0.00143147 77.0952 -1.06433 -0.359291 1.01907 0 9.53674e-007 179.962 -0.00521099 0.00883844 39.331 -0.0237961 0.00227798 -13.9105 -5.91122 -13.5541 34.288 -15.5923 0.00133324 30.031 -0.239185 8.98758 -19.9101 -1.8184 -9.42731 157.028 -43.8467 112.242 17.444 7.6294e-006 9.45022e-013 13.7942 61.6654 -69.7698 30.6251 -1.93623e-013 6.4373e-006 -49.8228 1.3215e-006 1.74792e-005 31.2039 -1.42109e-014 4.76837e-007 8.88151 29.5992 7.36737 22.1039 0.255864 -0.379043 -29.0266 65.8494 9.81116 12.0552 1.06582e-014 2.84216e-014 179.96 1.74503e-005 -5.86403e-005 -21.8454 -1.87031 2.80613 146.385 22.7477 -66.2157 17.4439 -9.09495e-013 3.8147e-006 -21.4181 -21.8019 30.4479 30.6251 -1.90735e-006 2.27374e-013 -36.7894 2.24894e-006 1.27198e-005 31.204 -3.8147e-006 0 20.406 -38.8845 9.71119 22.1039 0.255856 0.379028 -43.8522 -69.8062 1.29806 12.0552 -1.90735e-006 -3.81469e-006 -1.18025e-007 1.47461e-006 3.43236e-007 14.9357 -0.0105896 0.00104129 -2.89581 -3.46668 2.0299 14.3578 0.505509 4.3542e-009 -1.0515 10.1187 -5.18932 3.76994 -2.35631 12.3444 178.686 23.7913 -65.8846 3.76996 -2.35624 -12.3442 -10.9677 36.0224 121.789 11.8395 10.8645 -5.85991e-008 -172.775 -0.0276337 -179.998 9.73755 3.21672 -0.00274319 -8.8812 -1.02475e-007 -9.39119e-009 5.27072 0.746308 0.153271 7.86763 -0.0592035 0.00559862 6.93467 -0.751793 0.00124705 -81.874 3.86145 9.84432 13.0965 0.00138855 0.0129514 -11.208 -8.92507 22.7597 25.6158 7.6294e-006 -2.98023e-008 2.76197e-007 -1.48109e-008 -2.0773e-009 
-43.18 73.4101 3.65831 -10.924 -82.8417 86.1895 1.42109e-014 0 3.8147e-006 -90.5868 11.0731 -96.2969 -18.6385 -9.59102 8.88178e-016 -48.824 2.512 -173.06 20.9743 2.84217e-014 -0.000668526 10.2063 3.49569 -19.7783 20.3015 -1.42109e-014 -9.53674e-007 15.7724 -2.60567 -33.4318 21.6394 2.84217e-014 9.53675e-007 7.61415 -11.8231 -42.4115 21.7689 3.61594 -2.40914 12.3301 0.446184 9.01186 -19.4637 1.00329 -17.9724 -105.148 0.140082 179.357 34.2647 3.8147e-006 1.90735e-006 -56.0508 6.22141e-006 8.28604e-006 20.4429 4.26326e-014 1.90735e-006 40.8946 -2.81839e-006 2.70673e-006 16.5673 -1.90735e-006 -5.72205e-006 16.9796 -5.18991 -6.31175 9.18785 6.94839 1.29999e-008 83.0671 2.23163 -0.250857 1.01907 -1.90735e-006 -1.90735e-006 1.11612e-006 2.44251e-008 8.79781e-008 -24.8219 1.26805 15.8091 -135.108 19.7006 -169.822 34.2647 4.08562e-014 7.10543e-015 -81.9672 -2.30385e-006 -1.70905e-005 20.4429 -1.42109e-014 -3.55271e-015 74.2469 2.48842e-006 -9.7962e-006 16.5673 3.8147e-006 1.90735e-006 -52.4074 10.7144 -0.356806 9.18775 6.94854 -0.00143147 75.529 -1.02359 -0.341866 1.01907 -1.42109e-014 9.53674e-007 179.962 -0.00521099 0.00883844 39.331 -0.0237961 0.0019173 -13.8558 -5.24768 -13.8424 34.288 -15.5923 0.00133324 30.0472 -0.185108 9.08967 -19.8938 -1.81899 -9.46142 156.783 -42.5504 111.63 17.444 7.6294e-006 9.59232e-013 12.217 60.771 -69.7996 30.6251 -2.18492e-013 6.4373e-006 -50.3207 1.19139e-006 1.75416e-005 31.2039 -7.10544e-015 4.76837e-007 8.75272 29.6571 7.86707 22.1039 0.255864 -0.379043 -29.3976 65.7989 9.42665 12.0552 1.06582e-014 -1.42108e-014 179.96 1.74503e-005 -5.86401e-005 -21.8511 -1.85958 2.76857 146.265 23.0759 -66.1892 17.4439 -9.09495e-013 3.8147e-006 -20.6372 -22.6513 31.1371 30.6251 -1.90735e-006 2.2915e-013 -36.7673 2.2346e-006 1.28472e-005 31.204 -3.8147e-006 8.88178e-016 22.2779 -37.212 10.9214 22.1039 0.255856 0.379028 -41.3185 -70.5903 0.579555 12.0552 -1.90735e-006 -3.81469e-006 -1.18025e-007 1.47461e-006 3.43236e-007 14.9357 -0.0105896 0.00104129 -2.80437 -3.52689 2.1257 14.3578 0.505509 4.24478e-009 -1.16835 9.76115 -5.11801 3.76994 -2.35631 12.3444 178.951 23.2846 -66.5163 3.76996 -2.35624 -12.3442 -10.8474 35.7681 121.346 11.8395 10.8645 -5.91416e-008 -172.339 -0.0276184 -179.998 9.73755 3.21672 -0.00274319 -8.92679 -1.05868e-007 -9.61268e-009 5.27072 0.746308 0.153271 8.35812 -0.0591653 0.00602414 6.93467 -0.751793 0.00124705 -81.247 3.80332 9.66703 13.0965 0.00138855 0.0129514 -11.2145 -8.58015 22.7447 25.6158 7.6294e-006 -2.98023e-008 2.76197e-007 -1.48109e-008 -2.0773e-009 
-43.18 73.3475 3.55805 -10.9131 -82.7918 86.2001 -1.42109e-014 -1.77636e-015 3.8147e-006 -90.889 11.052 -95.7002 -18.6385 -9.59102 -1.77636e-015 -48.5208 2.71661 -171.736 20.9743 1.42109e-014 -0.000668526 10.2204 3.24584 -19.2116 20.3015 -1.42109e-014 -9.53674e-007 16.1954 -2.88979 -33.5004 21.6394 5.68434e-014 9.53675e-007 7.50761 -11.5258 -44.6616 21.7937 3.60822 -2.18581 12.2122 0.37127 8.66577 -19.563 0.98814 -18.0776 -103.963 0.711607 179.604 34.2647 3.8147e-006 1.90735e-006 -55.0697 6.32204e-006 8.19507e-006 20.4429 2.13163e-014 1.90735e-006 39.8639 -2.83644e-006 2.62151e-006 16.5673 -1.90735e-006 -5.72205e-006 18.1042 -4.79657 -6.34974 9.18785 6.94839 1.10334e-008 83.1482 2.22763 -0.247159 1.01907 -1.90735e-006 -1.90735e-006 1.11612e-006 2.44251e-008 8.79781e-008 -24.7172 1.20845 15.736 -136.131 19.831 -169.68 34.2647 4.08562e-014 7.10543e-015 -77.6662 -3.57907e-006 -1.68696e-005 20.4429 -2.84217e-014 -1.77636e-014 72.0133 1.23966e-005 -6.59829e-006 16.5673 3.8147e-006 1.90735e-006 -50.106 10.4166 0.944768 9.18775 6.94854 -0.00143147 73.9455 -0.982897 -0.323117 1.01907 -1.06581e-014 9.53674e-007 179.962 -0.00521099 0.00883844 39.331 -0.0237961 0.00155054 -13.6806 -4.51381 -14.0585 34.288 -15.5923 0.00133324 29.8372 -0.136405 9.14108 -19.8789 -1.90114 -9.47639 156.712 -41.1559 110.965 17.444 7.6294e-006 1.00897e-012 10.457 59.8892 -69.6704 30.6251 -1.65201e-013 6.4373e-006 -50.7298 8.74532e-006 1.13469e-005 31.2039 -1.42109e-014 4.76837e-007 8.54936 29.7178 8.39457 22.1039 0.255864 -0.379043 -29.7724 65.749 9.03879 12.0552 1.42109e-014 4.97379e-014 179.96 1.74503e-005 -5.864e-005 -21.847 -1.93079 2.75189 146.437 23.0286 -66.5908 17.4439 -9.09495e-013 3.8147e-006 -19.8369 -24.5501 32.7473 30.6251 -1.90735e-006 0 -36.3929 7.9486e-006 5.2716e-006 31.204 -3.8147e-006 0 24.3588 -34.1517 11.9784 22.1039 0.255856 0.379028 -36.3347 -71.9763 -0.578628 12.0552 -1.90735e-006 -3.81469e-006 -1.18025e-007 1.47461e-006 3.43236e-007 14.9357 -0.0105896 0.00104129 -2.58049 -3.55644 2.22368 14.3578 0.505509 4.10376e-009 -1.14778 9.27235 -5.05175 3.76994 -2.35631 12.3444 179.157 22.9397 -66.9599 3.76996 -2.35624 -12.3442 -10.7288 35.5105 120.902 11.8395 10.8645 -5.96036e-008 -171.915 -0.0446777 -179.997 9.73755 3.21672 -0.00274319 -8.94906 -1.08449e-007 -9.69651e-009 5.27072 0.746308 0.153271 8.85342 -0.0591194 0.00648138 6.93467 -0.751793 0.00124705 -80.4842 3.71761 9.44966 13.0965 0.00138855 0.0129514 -11.2208 -8.14779 22.6971 25.6158 7.6294e-006 -2.98023e-008 2.76197e-007 -1.48109e-008 -2.0773e-009 
-43.18 73.2501 3.43796 -10.9247 -82.7842 86.1884 1.42109e-014 -8.88178e-016 3.8147e-006 -91.2052 11.0009 -95.0315 -18.6385 -9.59102 -3.55271e-015 -48.2341 2.90872 -170.494 20.9743 0 -0.000668526 10.2552 2.99926 -18.6013 20.3015 1.42109e-014 -9.53674e-007 16.5305 -3.15866 -33.3743 21.6394 1.42109e-014 9.53675e-007 7.41484 -11.2302 -46.8652 21.8205 3.589 -1.93472 12.0068 0.28641 8.24074 -19.6858 0.954219 -18.1833 -102.803 1.26274 179.864 34.2647 3.8147e-006 1.90735e-006 -54.1889 6.40432e-006 8.11136e-006 20.4429 3.55271e-014 1.90735e-006 38.8819 -2.84896e-006 2.53773e-006 16.5673 -1.90735e-006 -5.72205e-006 19.1605 -4.41174 -6.36859 9.18785 6.94839 9.32954e-009 83.2277 2.22372 -0.243528 1.01907 -1.90735e-006 -1.90735e-006 1.11612e-006 2.44251e-008 8.79781e-008 -24.5904 1.1243 15.6677 -136.9 19.9187 -169.612 34.2647 4.61853e-014 1.06581e-014 -72.9889 -4.94278e-006 -1.65216e-005 20.4429 -2.13163e-014 -1.06581e-014 69.4018 4.51249e-006 -9.09792e-006 16.5673 3.8147e-006 1.90735e-006 -47.6474 10.2712 2.28971 9.18775 6.94854 -0.00143147 72.1978 -0.938388 -0.301358 1.01907 -2.57572e-014 9.53674e-007 179.962 -0.00521099 0.00883844 39.331 -0.0237961 0.0011934 -13.4051 -3.73109 -14.2082 34.288 -15.5923 0.00133324 29.4382 -0.0890897 9.14129 -19.8651 -2.05354 -9.47332 156.816 -39.7116 110.28 17.444 7.6294e-006 1.03029e-012 8.57616 59.0509 -69.3901 30.6251 -2.11387e-013 6.4373e-006 -51.0366 1.01679e-006 1.76771e-005 31.2039 0 4.76837e-007 8.29069 29.7816 8.91676 22.1039 0.255864 -0.379043 -30.1387 65.7002 8.69833 12.0552 7.10546e-015 7.10541e-015 179.96 1.74504e-005 -5.86398e-005 -21.8335 -2.07301 2.75492 146.861 22.7041 -67.3257 17.4439 -9.09495e-013 3.8147e-006 -18.9532 -27.1453 35.0743 30.6251 -1.90735e-006 -1.77636e-015 -35.7847 2.22709e-006 1.32361e-005 31.204 -3.8147e-006 0 26.4552 -30.1821 12.7663 22.1039 0.255856 0.379028 -29.2603 -73.7775 -1.49814 12.0552 -1.90735e-006 -3.81469e-006 -1.18025e-007 1.47461e-006 3.43236e-007 14.9357 -0.0105896 0.00104129 -2.24131 -3.56193 2.31715 14.3578 0.505509 3.9277e-009 -1.00795 8.68806 -4.98272 3.76994 -2.35631 12.3444 179.355 22.6002 -67.3926 3.76996 -2.35624 -12.3442 -10.6151 35.2572 120.468 11.8395 10.8645 -6.01859e-008 -171.523 -0.0404968 -179.997 9.73755 3.21672 -0.00274319 -8.97089 -1.11252e-007 -9.83831e-009 5.27072 0.746308 0.153271 9.3391 -0.0590712 0.00692837 6.93467 -0.751793 0.00124705 -79.6292 3.61534 9.20993 13.0965 0.00138855 0.0129514 -11.2214 -7.65514 22.6746 25.6158 7.6294e-006 -2.98023e-008 2.76197e-007 -1.48109e-008 -2.0773e-009 
